<?xml version="1.0" encoding="UTF-8"?>
<svg width="114px" height="53px" viewBox="0 0 114 53" version="1.1" xmlns="http://www.w3.org/2000/svg" xmlns:xlink="http://www.w3.org/1999/xlink">
    <title>banner-模版2.0-pc 3</title>
    <g id="页面-1" stroke="none" stroke-width="1" fill="none" fill-rule="evenodd">
        <g id="banner-模版2.0-pc-3" fill="#FFFFFF" fill-rule="nonzero">
            <rect id="Rectangle-Copy-13_3_" x="41.6" y="52" width="30.3" height="1"></rect>
            <g id="编组">
                <path d="M2.5,33.7 L2.5,35.8 C2.5,36.1 2.4,36.3 2.1,36.5 C1.8,36.7 1.5,36.8 1.1,36.8 C0.8,36.8 0.6,36.7 0.5,36.6 C0.4,36.5 0.4,36.3 0.3,36.1 L0.4,32.3 L0.4,23.7 L0.3,20.3 C0.4,20.2 0.4,20.1 0.5,20.1 L0.8,20.3 L2.8,21.4 L3.7,21.4 L7,21.4 L7.5,20.5 C7.8,20 8,19.8 8,19.8 C8.1,19.8 8.3,20 8.6,20.3 L9.8,21.5 C10,21.7 10.1,21.8 10.2,22 C10.3,22.2 10.3,22.2 10.3,22.3 C10.3,22.4 10.2,22.6 10,22.8 L9.4,23.5 L9.4,31 L9.5,34.9 C9.4,35.1 9.3,35.3 9.2,35.4 C9.1,35.5 8.8,35.7 8.4,35.8 C8,35.9 7.7,35.9 7.6,35.9 C7.3,35.9 7.1,35.7 7.1,35.3 L7.1,33.7 L2.5,33.7 L2.5,33.7 Z M7,32.6 L7,22.6 L2.5,22.6 L2.5,32.6 L7,32.6 Z M15.6,15.1 L6.9,15.1 L6.9,17 C6.9,17.2 6.8,17.4 6.6,17.6 C6.4,17.7 6.2,17.8 5.9,17.9 C5.6,18 5.3,18 5.1,18 C4.9,18 4.7,17.9 4.6,17.8 C4.5,17.7 4.5,17.5 4.4,17.3 L4.5,13 L4.5,6 L4.4,2.3 C4.5,2.2 4.5,2.2 4.5,2.1 C4.5,2.1 4.7,2.2 4.9,2.3 L6.8,3.7 L15.3,3.7 L15.9,2.6 C16.1,2.3 16.2,2.1 16.3,2.1 C16.4,2.1 16.7,2.3 17.1,2.7 L18.1,3.7 C18.4,4 18.6,4.2 18.7,4.3 C18.8,4.4 18.8,4.6 18.8,4.7 C18.8,4.8 18.7,5 18.5,5.3 L18,6 L18,12.5 L18.1,16.3 C17.9,16.7 17.6,17 17.2,17.1 C16.8,17.2 16.4,17.3 16.2,17.3 C15.8,17.3 15.6,17.1 15.6,16.6 L15.6,15.1 Z M15.6,14 L15.6,4.9 L6.9,4.9 L6.9,14 L15.6,14 Z M19.9,33.7 L14.8,33.7 L14.8,35.4 C14.8,35.6 14.7,35.8 14.4,36.1 C14.1,36.4 13.7,36.5 13.1,36.5 C12.8,36.5 12.7,36.4 12.6,36.3 C12.5,36.2 12.5,36 12.5,35.8 L12.6,31.3 L12.6,23.4 L12.5,19.9 C12.5,19.8 12.6,19.7 12.6,19.7 C12.6,19.7 12.7,19.8 13,19.9 L14.9,21.4 L19.7,21.4 L20.3,20.3 C20.5,19.9 20.7,19.7 20.8,19.7 C20.9,19.7 21.2,19.9 21.5,20.3 L22.6,21.4 C22.8,21.6 22.9,21.8 23,21.9 C23.1,22 23.1,22.1 23.1,22.2 C23.1,22.3 23,22.5 22.8,22.7 L22.3,23.4 L22.3,31 L22.4,34.7 C22.3,34.9 22.2,35.1 22,35.4 C21.8,35.7 21.3,35.7 20.6,35.7 C20.1,35.7 19.9,35.5 19.9,35.1 L19.9,33.7 L19.9,33.7 Z M19.9,32.6 L19.9,22.5 L14.8,22.5 L14.8,32.6 L19.9,32.6 Z" id="形状"></path>
                <path d="M34.6,14.1 L34.6,5.1 L34.5,2 C34.6,1.9 34.6,1.9 34.7,1.9 C34.8,1.9 34.9,1.9 35.2,2 L37.1,2.9 C37.3,3 37.4,3.1 37.5,3.1 C37.6,3.2 37.6,3.2 37.6,3.3 C37.6,3.4 37.6,3.4 37.5,3.5 C37.4,3.6 37.4,3.7 37.3,3.7 L36.6,4.3 L36.6,14.1 L36.6,14.1 L37.2,12.8 C37.3,12.6 37.4,12.5 37.4,12.5 C37.4,12.5 37.6,12.6 37.7,12.9 L38.5,14.3 C38.7,14.6 38.8,14.9 38.8,15 C38.8,15.1 38.6,15.2 38.2,15.2 L37.6,15.2 L37.6,15.2 L32,15.2 C32,16.1 32,16.8 32,17.2 L32,19.2 L31.9,22 L34.3,22 L34.9,20.9 C35,20.7 35.1,20.6 35.2,20.6 C35.3,20.6 35.4,20.7 35.6,20.9 L37.2,22.5 C37.4,22.7 37.5,22.8 37.5,22.9 C37.5,23 37.6,23.1 37.6,23.1 C37.6,23.1 37.5,23.3 37.3,23.5 L36.7,24.1 L36.7,33.4 L36.9,37 C36.8,37.3 36.7,37.6 36.6,37.7 C36.5,37.8 36.3,38 36,38.1 C35.7,38.2 35.4,38.3 35.1,38.3 C34.8,38.3 34.7,38.2 34.6,38.1 C34.5,38 34.4,37.8 34.4,37.6 L34.6,33.3 L34.6,23.2 L32,23.2 C32,23.7 31.9,24.4 31.8,25.2 C31.7,26 31.5,27 31.4,27.8 C31.2,28.7 30.9,29.9 30.4,31.5 C29.9,33.1 29.3,34.6 28.5,36.1 L28,37.1 C27.9,37.4 27.7,37.5 27.7,37.5 C27.6,37.5 27.6,37.4 27.6,37.3 C27.6,37.2 27.6,37 27.7,36.9 L28.1,35.7 C28.5,34.3 28.9,32.8 29.2,31.2 C29.5,29.6 29.7,28.1 29.8,26.9 C29.9,25.7 30,24.4 30,23.2 C30,22 30.1,21 30.1,20.2 C30.1,19.4 30.1,18.7 30.1,18.1 C30.1,16.7 30.1,14.7 30,12.2 C30,9.7 30,8.1 30,7.3 L30,5.6 L29.9,3.6 C29.9,3.3 30.1,3.3 30.4,3.4 L32.8,4.4 C33,4.5 33.1,4.6 33.1,4.8 C33.1,5 33,5.1 32.9,5.3 L32.3,5.9 L32.3,14.1 L34.6,14.1 Z M38.7,26.5 C38.7,26.5 38.7,26.4 38.7,26.3 C38.7,26.2 38.7,26.1 38.9,26 L39.4,25.4 C40.3,24.4 41,23.5 41.5,22.6 C42,21.7 42.4,21.1 42.6,20.6 C42.8,20.1 43.1,19.5 43.3,18.9 L41.5,18.9 L41.5,19.6 C41.5,20.2 41.3,20.5 41,20.7 C40.7,20.9 40.4,21 40.1,21 C39.8,21 39.6,20.9 39.4,20.7 C39.3,20.5 39.2,20.3 39.1,20 L39.2,17 L39.2,8.4 L39.1,5.2 C39.2,5.1 39.2,5 39.3,5 C39.4,5 39.5,5.1 39.7,5.2 L41.5,6.6 L43,6.6 C43.1,6 43.1,5.6 43.1,5.2 C43.1,4.8 43.2,3.9 43.2,2.5 L43.2,1.4 L43.2,0.5 C43.2,0.5 43.3,0.4 43.3,0.4 C43.3,0.4 43.5,0.4 43.8,0.5 L46.2,1.5 C46.5,1.7 46.7,1.8 46.7,2 C46.7,2.2 46.6,2.3 46.4,2.4 L45.6,2.9 C45.4,3.4 45.3,3.7 45.2,4 C45.1,4.3 44.9,5.1 44.4,6.5 L49.3,6.5 L49.9,5.3 C50,5.1 50.1,4.9 50.1,4.9 C50.1,4.9 50.3,5 50.6,5.3 L52.4,6.9 C52.6,7.1 52.8,7.3 52.8,7.4 C52.8,7.5 52.9,7.6 52.9,7.6 C52.9,7.6 52.8,7.8 52.7,8 L52.1,8.8 L52.1,16.4 L52.2,19.5 C51.9,20.2 51.3,20.5 50.3,20.5 C49.9,20.5 49.7,20.2 49.7,19.7 L49.7,18.6 L45.3,18.6 C44.8,19.9 44,21.2 43,22.5 C42,23.7 41,24.7 40.2,25.4 L39.4,26 L39.1,26.2 L45.2,26.2 L45.2,24 L45.1,20.4 C45.2,20.3 45.3,20.2 45.4,20.2 L45.9,20.4 L48,21.2 C48.2,21.3 48.3,21.4 48.4,21.4 C48.5,21.5 48.5,21.5 48.5,21.6 C48.5,21.7 48.5,21.7 48.4,21.8 C48.4,21.9 48.3,22 48.2,22 L47.7,22.5 L47.7,26.5 L51,26.5 L51.8,25 C52,24.6 52.1,24.5 52.2,24.5 C52.3,24.5 52.5,24.7 52.8,25.1 L54.1,26.7 C54.3,27 54.4,27.2 54.4,27.3 C54.4,27.4 54.4,27.5 54.3,27.5 C54.2,27.6 54.1,27.6 54,27.6 L47.6,27.6 L47.6,34.1 L47.7,37 C47.5,37.9 46.9,38.3 45.8,38.3 C45.5,38.3 45.3,38.2 45.2,38.1 C45.1,38 45,37.8 45,37.6 L45.2,33.6 L45.2,27.6 L37.8,27.6 L37.6,27.5 C37.5,27.4 37.4,27.2 37.4,26.9 C37.4,26.6 37.5,26.5 37.8,26.5 L38.7,26.5 L38.7,26.5 Z M41.5,8 L41.5,12 L44.3,12 C44.3,11.8 44.3,11.7 44.3,11.5 L44.3,10 C44.3,9 44.3,8.5 44.3,8.4 L44.3,8 L41.5,8 Z M44.2,13.1 L41.5,13.1 L41.5,17.8 L43.6,17.8 C43.6,17.6 43.7,17.3 43.8,16.9 C43.9,16.5 44,15.9 44.1,15 C44.2,14.1 44.2,13.5 44.2,13.1 Z M49.7,13.1 L46.4,13.1 C46.4,13.5 46.3,14.1 46.2,15 C46.1,15.9 46,16.5 45.9,16.9 C45.8,17.3 45.7,17.6 45.7,17.7 L49.7,17.7 L49.7,13.1 Z M49.7,8 L46.9,8 C46.9,8.1 46.8,8.2 46.6,8.4 L46.5,12 L49.7,12 L49.7,8 L49.7,8 Z" id="形状"></path>
                <path d="M76.9,3.9 L78.2,1.7 C78.3,1.5 78.4,1.4 78.5,1.4 C78.6,1.4 78.8,1.5 79,1.8 L80.9,3.9 C81.2,4.2 81.3,4.5 81.3,4.7 C81.3,5 81.1,5.2 80.8,5.2 L71.8,5.2 C71.6,5.5 71.4,5.8 71.1,6 C71.1,7.3 71.1,8.4 71.1,9.4 C71.1,10.4 71.1,11.5 71,12.8 L70.9,15.4 L70.9,15.9 L78.8,15.9 L80.1,13.6 C80.3,13.3 80.4,13.1 80.5,13.1 C80.6,13.1 80.7,13.2 80.9,13.4 L83,15.9 C83.1,16.1 83.2,16.3 83.3,16.4 C83.4,16.5 83.4,16.6 83.4,16.6 C83.4,16.8 83.2,16.9 82.7,16.9 L79.6,16.9 L71.8,16.9 C71.9,17.6 72.2,18.8 72.6,20.4 C73,22 73.9,24.1 75.5,26.6 C77.1,29.1 78.5,30.9 79.8,31.8 C81.1,32.7 82.1,33.4 82.7,33.5 L83.5,33.7 C83.6,33.7 83.7,33.9 83.7,34.1 C83.7,34.3 83.6,34.4 83.4,34.5 L82.7,34.7 C82.5,34.8 82.2,34.9 81.8,35.2 C81.4,35.5 81.1,35.7 80.9,36 C80.6,36.3 80.4,36.6 80.3,36.9 C80.1,37.2 80,37.4 79.9,37.4 C79.8,37.4 79.6,37.3 79.3,37.1 C79,36.9 78.2,36.1 77,34.7 C75.8,33.3 74.7,31.6 73.8,29.4 C72.9,27.2 72.2,24.9 71.9,22.4 C71.5,19.9 71.3,18 71.2,16.6 L70.7,16.6 C70.7,16.8 70.7,17 70.7,17.1 L70.6,18.9 C70.3,22.6 69.7,25.4 68.8,27.3 C67.9,29.2 66.7,30.9 65.2,32.6 C63.7,34.3 61.9,35.7 59.5,37 L58.4,37.6 C58.3,37.7 58.2,37.7 58,37.7 C57.9,37.7 57.8,37.7 57.8,37.6 C57.8,37.5 57.8,37.5 57.8,37.4 C57.8,37.3 57.9,37.2 58.1,37 L59.3,36.1 C60.7,35 62.2,33.4 63.8,31.3 C65.4,29.2 66.4,27.1 66.8,24.8 C67.2,22.5 67.5,20.8 67.6,19.6 C67.7,18.4 67.8,17.4 67.8,16.6 L57.3,16.6 C57.1,16.6 57,16.4 56.9,16.1 C56.9,15.7 57,15.6 57.3,15.6 L67.8,15.6 C67.8,15.4 67.8,15.1 67.8,14.8 C67.8,14.5 67.8,13.4 67.9,11.7 C67.9,9.9 67.9,9 67.9,8.9 L67.9,4.9 L59.1,4.9 C58.7,4.9 58.6,4.7 58.6,4.3 C58.6,3.9 58.8,3.7 59.1,3.7 L76.9,3.7 L76.9,3.9 Z" id="路径"></path>
                <path d="M90.7,13 L90.7,6.4 L90.6,1.7 C90.6,1.7 90.7,1.6 90.7,1.6 C90.7,1.6 90.9,1.6 91.1,1.7 L93.6,2.6 C93.7,2.6 93.8,2.7 93.9,2.8 C94,2.9 94,3 94,3.1 C94,3.2 93.9,3.3 93.7,3.6 L93,4.4 L93,13 L93.8,13 L94.9,11.2 C95,11 95.1,10.9 95.2,10.9 C95.3,10.9 95.4,11 95.6,11.2 L97.1,13.2 C97.3,13.5 97.4,13.7 97.4,13.8 C97.4,13.9 97.4,14 97.3,14 C97.2,14.1 97.2,14.1 97.1,14.1 L93.2,14.1 L93.2,26.9 L96.9,24.9 C97.1,24.8 97.3,24.8 97.3,24.9 C97.3,25 97.4,25.1 97.4,25.1 C97.4,25.1 97.4,25.2 97.3,25.3 C97.3,25.4 97.2,25.5 97.1,25.6 L95.4,27.2 C94.1,28.4 93.2,29.4 92.5,30 L90.2,32.1 L88.9,33.4 L88.4,33.9 C88.3,33.9 88.3,33.9 88.2,33.9 C88.2,33.9 88.1,33.7 88,33.5 L86.7,30.5 C86.6,30.2 86.5,30.1 86.5,30.1 C86.5,30.1 86.5,30 86.6,30 L87.3,29.7 L90.7,28.3 L90.7,14.3 L86.6,14.3 C86.3,14.3 86.2,14.1 86.2,13.7 C86.3,13.3 86.4,13.1 86.7,13.1 L90.7,13 Z M97.7,17.9 L94.6,19.6 C94.2,19.9 93.9,19.8 93.8,19.5 C93.7,19.2 93.8,18.9 94.1,18.8 L97.7,16.7 L97.7,11.8 L97.6,7.8 C97.7,7.7 97.7,7.7 97.8,7.6 L98.5,7.9 L100.4,8.6 C100.6,8.7 100.7,8.8 100.8,8.8 C100.9,8.9 100.9,8.9 100.9,9 C100.9,9 100.9,9.1 100.8,9.3 C100.7,9.5 100.7,9.5 100.6,9.6 L100.1,10.2 L100.1,15.4 L103.2,13.7 L103.2,6.4 L103.1,1.6 C103.2,1.5 103.2,1.5 103.3,1.5 L103.6,1.6 L106,2.4 C106.1,2.4 106.2,2.5 106.2,2.6 C106.3,2.7 106.3,2.8 106.3,2.9 C106.3,3 106.2,3.1 106.1,3.3 L105.5,4 L105.5,12.4 L108.4,10.7 L109,9.2 C109.2,8.8 109.3,8.6 109.3,8.6 C109.3,8.6 109.5,8.7 109.8,8.9 L111.7,10.3 C111.9,10.5 112.1,10.6 112.1,10.7 C112.2,10.8 112.2,10.9 112.2,11 C112.2,11.1 112.1,11.3 111.9,11.6 L111.3,12.5 C111.3,14 111.3,15.3 111.3,16.4 C111.3,17.5 111.3,18.6 111.2,19.8 C111.1,21 111.1,22.1 111,23.3 C110.9,24.5 110.7,25.5 110.4,26.2 C110.1,26.9 109.8,27.4 109.5,27.6 C109.2,27.9 108.8,28.1 108.5,28.2 C108.2,28.3 107.9,28.4 107.8,28.4 C107.7,28.4 107.6,28.4 107.6,28.3 C107.6,28.2 107.6,28.2 107.5,28.2 C107.5,28.2 107.4,27.7 107.2,26.9 C107,26.1 106.6,25.4 105.9,25 L105.5,24.7 L105.5,24.1 L106.2,24.2 C106.8,24.3 107.2,24.3 107.5,24.3 C107.8,24.3 108,24.1 108.2,23.7 C108.4,23.3 108.5,22.8 108.5,22 C108.5,21.2 108.6,20.2 108.6,18.9 C108.6,17.6 108.7,16.2 108.7,14.9 L108.7,13.2 L108.7,11.6 L105.5,13.4 L105.5,26.2 L105.6,29.2 C105.5,29.7 105.2,30 104.8,30.2 C104.4,30.3 104.1,30.4 103.9,30.4 C103.5,30.4 103.3,30.3 103.3,30.1 C103.2,29.9 103.2,29.8 103.2,29.6 L103.3,24.8 L103.3,14.9 L103.3,14.9 L100.2,16.6 L100.2,31 C100.2,31.9 100.2,32.5 100.2,32.7 C100.2,32.9 100.3,33.1 100.4,33.3 C100.5,33.5 100.9,33.7 101.6,33.9 C102.3,34.1 103.4,34.2 104.8,34.2 C107.3,34.2 108.8,34 109.4,33.6 C110,33.2 110.5,32.8 110.7,32.5 C110.9,32.1 111.3,31.3 111.7,29.9 L112.7,26.7 C112.8,26.4 112.9,26.3 113,26.3 C113.1,26.3 113.1,26.4 113.2,26.5 C113.3,26.6 113.3,26.7 113.3,26.8 C113.3,26.9 113.3,27 113.3,27.1 L112.8,30.2 C112.7,30.5 112.7,30.8 112.7,31.1 C112.7,31.4 112.7,31.6 112.7,31.9 C112.7,32.3 112.8,32.6 112.9,32.9 L113.2,33.7 C113.2,33.9 113.3,34 113.3,34.2 C113.3,34.4 113.3,34.4 113.3,34.5 C113.3,34.6 113.3,34.7 113.3,34.8 C113.1,35.9 112.3,36.7 111,37.1 C109.7,37.5 107.8,37.8 105.3,37.7 C101.8,37.7 99.8,37.4 99.2,36.8 C98.6,36.2 98.3,35.7 98.1,35.2 C97.9,34.8 97.8,34.4 97.8,34.1 C97.8,33.8 97.8,33.2 97.8,32.4 L97.8,17.9 L97.7,17.9 Z" id="形状"></path>
            </g>
        </g>
    </g>
</svg>