<?xml version="1.0" encoding="UTF-8"?>
<svg width="114px" height="53px" viewBox="0 0 114 53" version="1.1" xmlns="http://www.w3.org/2000/svg" xmlns:xlink="http://www.w3.org/1999/xlink">
    <title>banner-模版2.0-pc 4</title>
    <g id="页面-1" stroke="none" stroke-width="1" fill="none" fill-rule="evenodd">
        <g id="banner-模版2.0-pc-4" fill="#FFFFFF" fill-rule="nonzero">
            <rect id="Rectangle-Copy-13_3_" x="41.6" y="52" width="30.3" height="1"></rect>
            <g id="编组">
                <path d="M2.5,33.7 L2.5,35.8 C2.5,36.1 2.4,36.3 2.1,36.5 C1.8,36.7 1.5,36.8 1.1,36.8 C0.8,36.8 0.6,36.7 0.5,36.6 C0.4,36.5 0.4,36.3 0.3,36.1 L0.4,32.3 L0.4,23.7 L0.3,20.3 C0.4,20.2 0.4,20.1 0.5,20.1 L0.8,20.3 L2.8,21.4 L3.7,21.4 L7,21.4 L7.5,20.5 C7.8,20 8,19.8 8,19.8 C8.1,19.8 8.3,20 8.6,20.3 L9.8,21.5 C10,21.7 10.1,21.8 10.2,22 C10.3,22.2 10.3,22.2 10.3,22.3 C10.3,22.4 10.2,22.6 10,22.8 L9.4,23.5 L9.4,31 L9.5,34.9 C9.4,35.1 9.3,35.3 9.2,35.4 C9.1,35.5 8.8,35.7 8.4,35.8 C8,35.9 7.7,35.9 7.6,35.9 C7.3,35.9 7.1,35.7 7.1,35.3 L7.1,33.7 L2.5,33.7 L2.5,33.7 Z M7,32.6 L7,22.6 L2.5,22.6 L2.5,32.6 L7,32.6 Z M15.6,15.1 L6.9,15.1 L6.9,17 C6.9,17.2 6.8,17.4 6.6,17.6 C6.4,17.7 6.2,17.8 5.9,17.9 C5.6,18 5.3,18 5.1,18 C4.9,18 4.7,17.9 4.6,17.8 C4.5,17.7 4.5,17.5 4.4,17.3 L4.5,13 L4.5,6 L4.4,2.3 C4.5,2.2 4.5,2.2 4.5,2.1 C4.5,2.1 4.7,2.2 4.9,2.3 L6.8,3.7 L15.3,3.7 L15.9,2.6 C16.1,2.3 16.2,2.1 16.3,2.1 C16.4,2.1 16.7,2.3 17.1,2.7 L18.1,3.7 C18.4,4 18.6,4.2 18.7,4.3 C18.8,4.4 18.8,4.6 18.8,4.7 C18.8,4.8 18.7,5 18.5,5.3 L18,6 L18,12.5 L18.1,16.3 C17.9,16.7 17.6,17 17.2,17.1 C16.8,17.2 16.4,17.3 16.2,17.3 C15.8,17.3 15.6,17.1 15.6,16.6 L15.6,15.1 Z M15.6,14 L15.6,4.9 L6.9,4.9 L6.9,14 L15.6,14 Z M19.9,33.7 L14.8,33.7 L14.8,35.4 C14.8,35.6 14.7,35.8 14.4,36.1 C14.1,36.4 13.7,36.5 13.1,36.5 C12.8,36.5 12.7,36.4 12.6,36.3 C12.5,36.2 12.5,36 12.5,35.8 L12.6,31.3 L12.6,23.4 L12.5,19.9 C12.5,19.8 12.6,19.7 12.6,19.7 C12.6,19.7 12.7,19.8 13,19.9 L14.9,21.4 L19.7,21.4 L20.3,20.3 C20.5,19.9 20.7,19.7 20.8,19.7 C20.9,19.7 21.2,19.9 21.5,20.3 L22.6,21.4 C22.8,21.6 22.9,21.8 23,21.9 C23.1,22 23.1,22.1 23.1,22.2 C23.1,22.3 23,22.5 22.8,22.7 L22.3,23.4 L22.3,31 L22.4,34.7 C22.3,34.9 22.2,35.1 22,35.4 C21.8,35.7 21.3,35.7 20.6,35.7 C20.1,35.7 19.9,35.5 19.9,35.1 L19.9,33.7 L19.9,33.7 Z M19.9,32.6 L19.9,22.5 L14.8,22.5 L14.8,32.6 L19.9,32.6 Z" id="形状"></path>
                <path d="M34.6,14.1 L34.6,5.1 L34.5,2 C34.6,1.9 34.6,1.9 34.7,1.9 C34.8,1.9 34.9,1.9 35.2,2 L37.1,2.9 C37.3,3 37.4,3.1 37.5,3.1 C37.6,3.2 37.6,3.2 37.6,3.3 C37.6,3.4 37.6,3.4 37.5,3.5 C37.4,3.6 37.4,3.7 37.3,3.7 L36.6,4.3 L36.6,14.1 L36.6,14.1 L37.2,12.8 C37.3,12.6 37.4,12.5 37.4,12.5 C37.4,12.5 37.6,12.6 37.7,12.9 L38.5,14.3 C38.7,14.6 38.8,14.9 38.8,15 C38.8,15.1 38.6,15.2 38.2,15.2 L37.6,15.2 L37.6,15.2 L32,15.2 C32,16.1 32,16.8 32,17.2 L32,19.2 L31.9,22 L34.3,22 L34.9,20.9 C35,20.7 35.1,20.6 35.2,20.6 C35.3,20.6 35.4,20.7 35.6,20.9 L37.2,22.5 C37.4,22.7 37.5,22.8 37.5,22.9 C37.5,23 37.6,23.1 37.6,23.1 C37.6,23.1 37.5,23.3 37.3,23.5 L36.7,24.1 L36.7,33.4 L36.9,37 C36.8,37.3 36.7,37.6 36.6,37.7 C36.5,37.8 36.3,38 36,38.1 C35.7,38.2 35.4,38.3 35.1,38.3 C34.8,38.3 34.7,38.2 34.6,38.1 C34.5,38 34.4,37.8 34.4,37.6 L34.6,33.3 L34.6,23.2 L32,23.2 C32,23.7 31.9,24.4 31.8,25.2 C31.7,26 31.5,27 31.4,27.8 C31.2,28.7 30.9,29.9 30.4,31.5 C29.9,33.1 29.3,34.6 28.5,36.1 L28,37.1 C27.9,37.4 27.7,37.5 27.7,37.5 C27.6,37.5 27.6,37.4 27.6,37.3 C27.6,37.2 27.6,37 27.7,36.9 L28.1,35.7 C28.5,34.3 28.9,32.8 29.2,31.2 C29.5,29.6 29.7,28.1 29.8,26.9 C29.9,25.7 30,24.4 30,23.2 C30,22 30.1,21 30.1,20.2 C30.1,19.4 30.1,18.7 30.1,18.1 C30.1,16.7 30.1,14.7 30,12.2 C30,9.7 30,8.1 30,7.3 L30,5.6 L29.9,3.6 C29.9,3.3 30.1,3.3 30.4,3.4 L32.8,4.4 C33,4.5 33.1,4.6 33.1,4.8 C33.1,5 33,5.1 32.9,5.3 L32.3,5.9 L32.3,14.1 L34.6,14.1 Z M38.7,26.5 C38.7,26.5 38.7,26.4 38.7,26.3 C38.7,26.2 38.7,26.1 38.9,26 L39.4,25.4 C40.3,24.4 41,23.5 41.5,22.6 C42,21.7 42.4,21.1 42.6,20.6 C42.8,20.1 43.1,19.5 43.3,18.9 L41.5,18.9 L41.5,19.6 C41.5,20.2 41.3,20.5 41,20.7 C40.7,20.9 40.4,21 40.1,21 C39.8,21 39.6,20.9 39.4,20.7 C39.3,20.5 39.2,20.3 39.1,20 L39.2,17 L39.2,8.4 L39.1,5.2 C39.2,5.1 39.2,5 39.3,5 C39.4,5 39.5,5.1 39.7,5.2 L41.5,6.6 L43,6.6 C43.1,6 43.1,5.6 43.1,5.2 C43.1,4.8 43.2,3.9 43.2,2.5 L43.2,1.4 L43.2,0.5 C43.2,0.5 43.3,0.4 43.3,0.4 C43.3,0.4 43.5,0.4 43.8,0.5 L46.2,1.5 C46.5,1.7 46.7,1.8 46.7,2 C46.7,2.2 46.6,2.3 46.4,2.4 L45.6,2.9 C45.4,3.4 45.3,3.7 45.2,4 C45.1,4.3 44.9,5.1 44.4,6.5 L49.3,6.5 L49.9,5.3 C50,5.1 50.1,4.9 50.1,4.9 C50.1,4.9 50.3,5 50.6,5.3 L52.4,6.9 C52.6,7.1 52.8,7.3 52.8,7.4 C52.8,7.5 52.9,7.6 52.9,7.6 C52.9,7.6 52.8,7.8 52.7,8 L52.1,8.8 L52.1,16.4 L52.2,19.5 C51.9,20.2 51.3,20.5 50.3,20.5 C49.9,20.5 49.7,20.2 49.7,19.7 L49.7,18.6 L45.3,18.6 C44.8,19.9 44,21.2 43,22.5 C42,23.7 41,24.7 40.2,25.4 L39.4,26 L39.1,26.2 L45.2,26.2 L45.2,24 L45.1,20.4 C45.2,20.3 45.3,20.2 45.4,20.2 L45.9,20.4 L48,21.2 C48.2,21.3 48.3,21.4 48.4,21.4 C48.5,21.5 48.5,21.5 48.5,21.6 C48.5,21.7 48.5,21.7 48.4,21.8 C48.4,21.9 48.3,22 48.2,22 L47.7,22.5 L47.7,26.5 L51,26.5 L51.8,25 C52,24.6 52.1,24.5 52.2,24.5 C52.3,24.5 52.5,24.7 52.8,25.1 L54.1,26.7 C54.3,27 54.4,27.2 54.4,27.3 C54.4,27.4 54.4,27.5 54.3,27.5 C54.2,27.6 54.1,27.6 54,27.6 L47.6,27.6 L47.6,34.1 L47.7,37 C47.5,37.9 46.9,38.3 45.8,38.3 C45.5,38.3 45.3,38.2 45.2,38.1 C45.1,38 45,37.8 45,37.6 L45.2,33.6 L45.2,27.6 L37.8,27.6 L37.6,27.5 C37.5,27.4 37.4,27.2 37.4,26.9 C37.4,26.6 37.5,26.5 37.8,26.5 L38.7,26.5 L38.7,26.5 Z M41.5,8 L41.5,12 L44.3,12 C44.3,11.8 44.3,11.7 44.3,11.5 L44.3,10 C44.3,9 44.3,8.5 44.3,8.4 L44.3,8 L41.5,8 Z M44.2,13.1 L41.5,13.1 L41.5,17.8 L43.6,17.8 C43.6,17.6 43.7,17.3 43.8,16.9 C43.9,16.5 44,15.9 44.1,15 C44.2,14.1 44.2,13.5 44.2,13.1 Z M49.7,13.1 L46.4,13.1 C46.4,13.5 46.3,14.1 46.2,15 C46.1,15.9 46,16.5 45.9,16.9 C45.8,17.3 45.7,17.6 45.7,17.7 L49.7,17.7 L49.7,13.1 Z M49.7,8 L46.9,8 C46.9,8.1 46.8,8.2 46.6,8.4 L46.5,12 L49.7,12 L49.7,8 L49.7,8 Z" id="形状"></path>
                <path d="M72.4,35 L73.2,26.3 L65.4,26.3 L64,28 C63.9,28.2 63.8,28.2 63.8,28.2 C63.8,28.2 63.7,28.1 63.6,27.9 L61.9,25.5 C61.9,25.5 61.9,25.4 61.8,25.3 C61.8,25.2 61.7,25.1 61.8,25.1 C61.8,25 61.9,24.9 62,24.8 L62.9,24 L65.1,6.4 L57.8,6.4 C57.6,6.4 57.4,6.2 57.4,5.8 C57.4,5.4 57.5,5.2 57.8,5.2 L77,5.2 L78.6,2.9 C78.9,2.5 79,2.3 79,2.4 C79,2.4 79.2,2.6 79.5,2.9 L81.7,5.7 C81.8,5.9 81.9,6 81.9,6.1 C81.9,6.3 81.8,6.3 81.6,6.3 L68.7,6.3 C68.6,6.5 68.5,6.7 68.4,6.8 C68.3,6.9 68.1,7 67.8,7.2 L66.9,14 L74,14 L74.9,12.4 C75,12.2 75.1,12.1 75.2,12.1 C75.3,12.1 75.4,12.2 75.7,12.4 L77.9,14.4 C78,14.5 78.1,14.7 78.1,14.8 C78.1,14.9 78.1,15 77.9,15.1 L77,15.8 L75.2,34.8 L78.5,34.8 L80.1,32.1 C80.2,31.9 80.3,31.8 80.3,31.8 C80.3,31.8 80.4,31.9 80.6,32.1 L83.1,35.3 C83.2,35.5 83.3,35.6 83.3,35.7 C83.3,35.8 83.2,35.9 83.1,35.9 L57.7,35.9 C57.5,35.9 57.4,35.9 57.3,35.8 C57.2,35.7 57.2,35.5 57.2,35.2 C57.2,34.9 57.3,34.8 57.6,34.8 L72.4,34.8 L72.4,35 Z M73.3,25.2 L74.3,15.3 L66.8,15.3 L65.5,25.2 L73.3,25.2 Z" id="形状"></path>
                <path d="M92.2,16.7 L86.7,16.7 C86.5,16.7 86.4,16.5 86.4,16.2 C86.4,15.9 86.5,15.7 86.7,15.7 L97.4,15.7 L98.6,13.6 C98.8,13.3 98.9,13.1 99,13.1 C99.1,13.1 99.2,13.2 99.5,13.5 L101.2,15.7 C101.3,15.9 101.4,16 101.5,16.2 C101.6,16.3 101.6,16.4 101.6,16.5 C101.6,16.6 101.6,16.7 101.5,16.7 C101.4,16.7 101.3,16.8 101.2,16.8 L93.7,16.8 L95.4,17.7 C95.7,17.9 95.9,18.1 95.9,18.3 C95.9,18.5 95.8,18.6 95.5,18.7 L94.9,19 C94.1,20.8 93.4,22.4 92.8,23.7 C92.2,25 91.4,26.6 90.3,28.4 C92.6,28.2 95,27.9 97.5,27.6 C97.4,27.1 97.3,26.8 97.3,26.5 C97.3,26.2 97.1,25.8 96.8,25.1 C96.5,24.4 96.3,23.9 96,23.5 L95.3,22.3 C95.3,22.2 95.2,22.2 95.2,22.1 C95.2,22 95.2,21.9 95.2,21.9 C95.2,21.8 95.3,21.8 95.4,21.8 C95.6,21.8 96.1,22 96.8,22.5 C97.5,23 98.2,23.6 98.8,24.2 C99.4,24.8 99.8,25.5 100.2,26 C100.5,26.5 100.7,27.1 100.8,27.7 C100.9,28.3 100.9,28.8 101,29.3 C101,29.8 100.9,30.3 100.7,30.7 C100.4,31.5 99.9,31.9 99.3,31.9 C98.9,31.9 98.5,31.7 98.3,31.3 C98.1,30.9 97.9,30.4 97.9,29.9 L97.7,28.7 C94.7,30.1 92.4,31.2 90.8,32.1 L89.7,32.7 L89.1,33.1 C89,33.1 89,33.1 88.9,33.1 C88.8,33.1 88.8,32.8 88.6,32.4 L87.7,30 C87.6,29.8 87.6,29.6 87.5,29.6 C87.5,29.5 87.4,29.5 87.4,29.4 C87.4,29.4 87.5,29.3 87.7,29.1 L88.2,28.7 C88.4,28.6 88.8,28.1 89.3,27.3 C89.8,26.5 90.4,24.9 91,22.7 C91.5,20.1 91.9,18.2 92.2,16.7 Z M96.5,7.1 L97.5,5.2 C97.6,5 97.7,4.8 97.8,4.8 C97.9,4.8 98.1,4.9 98.3,5.2 L100,7.1 C100.1,7.3 100.2,7.4 100.3,7.5 C100.4,7.6 100.4,7.7 100.4,7.8 C100.4,7.9 100.4,8 100.3,8 C100.2,8 100.1,8.1 99.9,8.1 L97.9,8.1 L97.9,8.1 L88,8.1 C87.8,8.1 87.6,7.9 87.6,7.5 C87.6,7.1 87.7,6.9 88,6.9 L96.5,6.9 L96.5,7.1 Z M99,11.5 L99.2,11.5 L103.3,11.2 C103.3,10 103.3,8.9 103.3,7.9 C103.3,6.9 103.3,6 103.3,5.2 L103.2,3 L103.1,1.2 C103.2,1.1 103.2,1.1 103.3,1.1 C103.4,1.1 103.5,1.1 103.9,1.2 L106.6,1.9 C106.7,1.9 106.8,2 106.9,2.1 C107,2.2 107.1,2.2 107.1,2.3 C107.1,2.3 107.1,2.4 107.1,2.4 C107.1,2.4 107.1,2.5 107.1,2.5 L106.8,2.9 L106,4 C106,6 106,7.2 106,7.6 L106,11.1 L109.3,10.9 L110,9.5 C110.1,9.2 110.3,9.1 110.4,9.1 C110.5,9.1 110.7,9.2 110.9,9.4 L113,11.5 C113,11.5 113.1,11.6 113.2,11.7 C113.3,11.8 113.4,11.9 113.4,11.9 C113.4,11.9 113.4,12 113.4,12 C113.4,12 113.4,12.1 113.4,12.2 C113.4,12.3 113.3,12.4 113.2,12.5 L112.2,13.5 C112.2,15.4 112.1,17 112.1,18.2 C112.1,19.4 112,21.4 111.9,24.2 C111.8,27 111.7,29.1 111.6,30.6 C111.5,32.1 111.2,33.4 110.9,34.4 C110.6,35.4 110.2,36.1 109.8,36.6 C109.4,37.1 109,37.4 108.5,37.7 C108,38 107.8,38.1 107.7,38.1 C107.6,38.1 107.6,38.1 107.5,38 C107.4,37.9 107.4,37.9 107.4,37.7 L107.1,36.6 C106.8,35.7 106.3,35.1 105.6,34.7 L104.5,34.2 C104.4,34.2 104.3,34.1 104.3,34 C104.2,33.9 104.2,33.8 104.2,33.8 C104.2,33.6 104.3,33.5 104.6,33.5 L105.9,33.6 C106.8,33.7 107.5,33.5 107.8,33.2 C108.1,32.9 108.4,32.3 108.7,31.4 C109,30.5 109.1,28.9 109.2,26.5 L109.4,20.8 C109.4,19.9 109.5,18.5 109.5,16.6 C109.5,14.7 109.5,13.7 109.5,13.6 L109.5,12 L105.9,12.2 C105.9,12.4 105.9,12.6 105.9,12.7 L105.8,14.9 C105.7,19.8 105.3,23.4 104.7,25.7 C104.1,28 103.5,29.8 102.7,31 C101.9,32.2 101.1,33.5 100.1,34.5 C99.1,35.6 98.1,36.5 97.1,37.3 L96.2,38 C96.1,38.1 95.9,38.2 95.9,38.2 C95.9,38.2 95.8,38.2 95.7,38.1 C95.6,38 95.7,38 95.7,37.9 C95.7,37.8 95.8,37.7 95.9,37.5 L96.9,36.4 C99.1,33.8 100.6,31.6 101.2,29.8 C101.8,28 102.3,26.3 102.6,24.6 C102.9,22.9 103.1,21.3 103.2,19.6 C103.3,18 103.4,16.4 103.4,14.8 L103.4,13.5 L103.4,12.3 L99.1,12.6 C98.9,12.6 98.8,12.5 98.8,12.1 C98.6,11.8 98.7,11.6 99,11.5 Z" id="形状"></path>
            </g>
        </g>
    </g>
</svg>