<?xml version="1.0" encoding="UTF-8"?>
<svg width="116px" height="53px" viewBox="0 0 116 53" version="1.1" xmlns="http://www.w3.org/2000/svg" xmlns:xlink="http://www.w3.org/1999/xlink">
    <title>banner-模版2.0-pc 2</title>
    <g id="页面-1" stroke="none" stroke-width="1" fill="none" fill-rule="evenodd">
        <g id="banner-模版2.0-pc-2" fill="#FFFFFF" fill-rule="nonzero">
            <rect id="Rectangle-Copy-13_3_" x="42.9" y="52" width="30.3" height="1"></rect>
            <g id="编组">
                <path d="M5.1,14.1 L1,14.1 C0.8,14.1 0.7,13.9 0.6,13.5 C0.6,13.1 0.7,12.9 1,12.9 L5.1,12.9 L5.8,11.4 C5.9,11.3 5.9,11.2 6,11.2 L6.2,11.4 L8.4,13.4 C8.4,13.5 8.5,13.5 8.5,13.6 C8.5,13.7 8.5,13.7 8.5,13.8 C8.5,13.9 8.5,13.9 8.4,14 L7.5,15.1 L7.5,29.5 C9.1,28.5 10.5,27.7 11.4,27 L12.7,26.1 C12.8,26 12.9,26 13,26.1 C13.1,26.2 13.1,26.2 13.1,26.3 C13.1,26.4 13.1,26.4 13,26.5 L11.9,27.9 C11.7,28.2 11,29 9.7,30.4 C8.4,31.8 7.4,33 6.5,34.1 L5.7,35 C5.6,35.2 5.5,35.2 5.4,35.2 C5.3,35.2 5.3,35.1 5.3,34.9 L4.5,31.6 L4.4,31.1 C4.4,31.1 4.5,30.9 4.7,30.7 C4.9,30.5 5.1,30.1 5.1,29.5 C5.2,28.9 5.2,28 5.2,26.8 L5.1,14.1 L5.1,14.1 Z M3.9,1.4 C3.9,1.3 4,1.3 3.9,1.4 C4,1.4 4.1,1.4 4.1,1.4 C4.1,1.4 4.5,1.5 5.2,1.7 C5.9,1.9 6.6,2.4 7.2,3.2 C7.9,4 8.1,5 8.1,6.3 C8.1,7.6 7.5,8.2 6.6,8.1 C6.2,8.1 5.9,7.9 5.7,7.4 C5.5,6.9 5.4,6.3 5.3,5.5 C5.2,4.7 5.1,3.9 4.9,3.4 C4.7,2.9 4.4,2.5 4.2,2.2 C3.9,1.9 3.8,1.8 3.8,1.7 C3.8,1.5 3.8,1.4 3.9,1.4 Z M11.6,18.6 L11.6,18.6 L21,18.6 L21.7,17.6 C21.8,17.4 21.9,17.3 21.9,17.3 C21.9,17.3 22,17.4 22.1,17.5 L24.3,19.9 C24.3,19.9 24.4,20 24.4,20.1 C24.4,20.2 24.5,20.2 24.5,20.3 C24.5,20.4 24.5,20.4 24.4,20.5 C24.3,20.6 24.3,20.6 24.3,20.6 L23.5,21.3 C23,22.8 22.5,24.2 22,25.6 C21.5,27 21,28.1 20.4,29 L19.5,30.4 C20.4,31.3 21.4,32 22.5,32.5 C23.6,33 24.4,33.3 24.9,33.5 C25.4,33.6 26,33.7 26.6,33.7 L27.6,33.8 C27.8,33.8 27.8,33.9 27.8,34.1 C27.8,34.2 27.7,34.3 27.7,34.4 L26.8,34.9 C26.6,35 26.4,35.3 26,35.7 C25.6,36.1 25.4,36.5 25.2,36.9 L24.8,37.7 L24.6,38.1 C24.5,38.1 24.5,38.1 24.4,38 L23.6,37.5 C21.5,36.3 19.6,34.6 17.8,32.5 C16.7,33.5 15.7,34.3 14.7,34.9 C13.8,35.5 12.6,36 11.2,36.6 C9.8,37.2 8.8,37.4 8.2,37.5 L7.5,37.6 C7.4,37.6 7.4,37.6 7.3,37.5 C7.2,37.4 7.2,37.4 7.2,37.3 C7.2,37.2 7.3,37.1 7.4,37.1 L8.1,36.8 C8.7,36.6 9.3,36.3 9.8,36.1 C10.3,35.9 11,35.4 11.9,34.7 C12.8,34 13.5,33.4 14.2,32.8 C14.9,32.2 15.5,31.4 16.3,30.5 C15.4,28.8 14.8,27.2 14.3,25.8 C13.8,24.4 13.5,22.5 13.3,20 L11.5,20 C11.3,20 11.2,19.8 11.1,19.5 C11,19.2 11.3,18.8 11.6,18.6 Z M19.7,3.9 L15.5,3.9 C15.5,4.1 15.5,4.6 15.5,5.3 C15.5,6 15.4,7.3 15.2,9 C15,10.7 14.6,12.2 14.1,13.4 C13.6,14.6 12.9,15.6 12,16.3 C11.1,17 10.4,17.5 9.8,18 L9.2,18.4 C9.1,18.4 9.1,18.5 9,18.5 C8.9,18.5 8.9,18.5 8.9,18.4 L8.9,18.3 C8.9,18.2 9,18.1 9,18 L9.6,17.4 C10,17 10.5,16.4 11.1,15.4 C11.7,14.4 12.2,13.2 12.5,11.8 C12.8,10.4 13,8.4 12.9,5.8 L12.9,4.5 L12.9,2.3 L12.9,1.9 C12.9,1.7 12.9,1.5 12.9,1.5 C12.9,1.5 13,1.5 13.2,1.6 L15.1,2.9 L19.7,2.9 L20.5,1.5 C20.6,1.4 20.6,1.3 20.7,1.3 C20.7,1.3 20.8,1.3 20.9,1.4 L23,3.4 C23.1,3.5 23.1,3.5 23.1,3.6 C23.1,3.7 23.1,3.7 23.1,3.8 C23.1,3.9 23,3.9 22.9,4 L22.2,4.6 L22.2,11.7 C22.2,12.2 22.2,12.6 22.3,12.7 C22.4,12.8 22.6,12.9 23,12.9 C23.3,12.9 23.7,12.9 24.1,12.8 C24.5,12.7 24.9,12.6 25.1,12.5 L25.7,12.2 C25.9,12.1 26,12.1 26.1,12.1 C26.2,12.1 26.4,12.4 26.8,13 C27.1,13.6 27.3,14.1 27.3,14.5 C27.3,14.8 27.1,15.2 26.8,15.5 C26.5,15.9 25.9,16.1 25,16.1 L22.6,16.1 C21.1,16.1 20.3,15.9 20,15.4 C19.8,14.9 19.6,14.3 19.6,13.7 L19.7,3.9 L19.7,3.9 Z M14.1,19.7 C14.3,20.6 14.5,21.8 14.9,23 C15.3,24.2 15.9,25.6 16.9,27 L17.7,28.3 C18,27.8 18.4,27 19,25.8 C19.6,24.7 20.2,22.6 20.9,19.6 L14.1,19.6 L14.1,19.7 Z" id="形状"></path>
                <path d="M35.2,15.1 L30.7,15.1 C30.5,15.1 30.4,14.9 30.3,14.6 C30.3,14.3 30.4,14.1 30.6,13.9 L30.7,13.9 L35.1,13.9 L35.8,12.4 C35.8,12.3 35.9,12.2 36,12.2 C36.1,12.2 36.2,12.3 36.3,12.4 L38.4,14.4 C38.5,14.5 38.5,14.6 38.5,14.7 C38.5,14.8 38.5,14.9 38.4,14.9 L37.4,15.9 L37.4,30.2 C38.9,29.1 40.5,28 42,26.8 L42.9,26.1 C43,26 43.1,26 43.1,26.1 C43.1,26.2 43.2,26.2 43.2,26.3 C43.2,26.4 43.2,26.5 43.1,26.5 L42.2,27.6 C42.2,27.6 41.3,28.7 39.7,30.7 C38.1,32.7 37,34.1 36.5,34.8 L35.7,35.9 C35.5,36.2 35.4,36.3 35.4,36.2 C35.4,36.2 35.3,36.1 35.3,36 L34.1,32.5 C34.1,32.4 34,32.4 34,32.3 C34,32.2 34,32.1 34,32.1 C34,32.1 34,32.1 34,32 C34,32 34.1,31.9 34.3,31.7 C34.5,31.5 34.6,31.3 34.7,31 C34.8,30.7 34.9,30.3 35,29.9 C35.1,29.5 35.1,28.9 35.1,28.3 L35.2,15.1 L35.2,15.1 Z M33.8,2.6 L33.8,2.6 C33.9,2.6 34.3,2.7 35,2.8 C35.7,3 36.5,3.5 37.2,4.4 C37.9,5.3 38.3,6.3 38.2,7.6 C38.1,8.9 37.6,9.5 36.6,9.5 C36.1,9.5 35.8,9.3 35.6,8.8 C35.4,8.3 35.3,7.7 35.2,6.8 C35.1,5.9 35,5.2 34.8,4.6 C34.6,4 34.3,3.6 34,3.4 C33.7,3.2 33.6,3 33.6,2.8 C33.6,2.6 33.7,2.7 33.8,2.6 Z M46.7,14.8 L46.7,5.3 L46.6,0.9 C46.6,0.9 46.8,0.9 47.1,1 L49.8,1.8 C49.9,1.8 50,1.9 50,2.1 C50,2.3 49.9,2.4 49.9,2.5 L49.2,3.4 L49.2,14.8 L52.8,14.8 L54.2,12.5 C54.3,12.3 54.4,12.2 54.4,12.2 C54.4,12.2 54.5,12.3 54.6,12.4 L56.7,15.4 C56.8,15.5 56.8,15.6 56.8,15.7 C56.8,15.8 56.7,15.9 56.6,15.9 L49.1,15.9 L49.1,32.1 L49.2,37 C49.2,37.2 49.1,37.4 49,37.6 C48.9,37.8 48.6,37.9 48.2,38.1 C47.8,38.3 47.4,38.3 47.1,38.3 C46.8,38.3 46.6,38.2 46.5,38.1 C46.4,38 46.4,37.8 46.4,37.5 L46.5,31.9 L46.5,15.9 L39.3,15.9 L39.1,15.8 C39,15.6 39,15.4 39,15.2 C39,15 39.1,14.9 39.3,14.9 L46.7,14.9 L46.7,14.8 L46.7,14.8 Z" id="形状"></path>
                <path d="M63.3,14.2 C63.2,14.2 63.1,14.1 63,14 C62.9,13.9 62.9,13.8 62.8,13.5 C62.8,13.2 62.9,13.1 63.2,13.1 L71.5,13.1 L71.5,8.6 L61,8.6 C60.8,8.6 60.6,8.4 60.6,8 C60.6,7.6 60.7,7.4 61,7.4 L69,7.4 C68.7,7.3 68.5,7.1 68.4,6.9 C68.3,6.7 68.2,6.3 68.1,5.9 L68,4.9 C67.8,3.8 67.6,3 67.3,2.5 C67,2 66.8,1.8 66.7,1.7 C66.6,1.6 66.5,1.5 66.5,1.5 L66.5,1.4 C66.5,1.2 66.6,1.1 66.7,1.1 C66.7,1.1 66.8,1.1 66.9,1.2 C67,1.2 67.1,1.3 67.4,1.4 C67.7,1.5 68.3,1.8 69.4,2.4 C70.4,3 70.9,4 70.9,5.5 C70.9,6 70.8,6.4 70.6,6.8 C70.4,7.2 70.1,7.4 69.8,7.6 L74.6,7.6 C75.2,5.2 75.6,3.7 75.7,3.1 L76,1.5 C76,1.2 76.1,1.1 76.1,1 C76.1,0.9 76.1,1 76.1,1 L76.3,1.2 L79.1,3.1 C79.3,3.2 79.3,3.4 79.3,3.4 C79.3,3.4 79.2,3.6 79.1,3.6 L78.4,3.9 L76,7.5 L81.1,7.5 L82.3,5.4 C82.4,5.2 82.5,5.1 82.5,5.1 C82.5,5.1 82.6,5.2 82.7,5.3 L84.8,8.2 C84.8,8.3 84.9,8.4 84.9,8.4 C84.9,8.5 84.8,8.6 84.6,8.6 L82.1,8.6 L74.6,8.6 C74.6,8.8 74.5,8.9 74.5,9 C74.5,9.1 74.4,9.2 74.2,9.3 L74.2,13.2 L78.9,13.2 L80,11.3 C80.1,11.1 80.1,11.1 80.2,11.1 C80.3,11.1 80.3,11.2 80.5,11.4 L82.3,13.8 C82.4,13.9 82.4,14 82.5,14.1 C82.6,14.2 82.4,14.3 82.1,14.3 L74.2,14.3 L74.2,18.9 L81.7,18.9 L82.9,16.9 C83,16.8 83.1,16.7 83.1,16.7 C83.1,16.7 83.2,16.8 83.3,16.9 L85.3,19.5 C85.4,19.6 85.4,19.7 85.4,19.8 C85.4,19.9 85.3,20 85.1,20 L60.6,20 L60.5,20 C60.4,20 60.3,19.9 60.2,19.8 C60.1,19.7 60.1,19.6 60.1,19.3 C60.1,19 60.2,18.9 60.5,18.9 L71.6,18.9 L71.6,14.3 L63.3,14.3 L63.3,14.2 L63.3,14.2 Z M61.1,25.9 C61,25.8 60.9,25.6 60.9,25.3 C60.9,25 61,24.9 61.3,24.9 L71.2,24.9 C71.2,24.7 71.2,24.6 71.2,24.4 C71.2,24.2 71.2,24.1 71.2,23.9 C71.2,23.7 71.2,23.3 71.3,22.7 L71.3,21.8 L71.3,20.4 C71.3,20.4 71.3,20.4 71.3,20.3 C71.3,20.3 71.4,20.3 71.7,20.4 L74.8,21.5 C74.9,21.6 75,21.6 75,21.8 C75,22 74.9,22.1 74.8,22.2 L74,23.1 L73.8,24.8 L81,24.8 L82.1,23.1 C82.1,23 82.2,23 82.2,22.9 C82.2,22.8 82.3,22.8 82.3,22.8 C82.3,22.8 82.4,22.9 82.6,23.1 L84.4,25.5 C84.5,25.7 84.5,25.8 84.5,25.8 C84.5,25.9 84.4,26 84.2,26 L74.2,26 C74.4,26.5 74.8,27.4 75.4,28.7 C76,30 77.1,31.1 78.7,31.9 C80.3,32.7 81.5,33.3 82.5,33.6 C83.5,33.9 84.1,34.1 84.5,34.1 L85.5,34.2 C85.6,34.2 85.7,34.3 85.7,34.5 C85.7,34.7 85.6,34.8 85.4,34.9 L84.6,35.3 C84.4,35.4 84.1,35.6 83.8,35.9 C83.5,36.2 83.3,36.6 83.1,36.9 L82.7,37.8 C82.6,38 82.6,38.1 82.5,38.1 C82.5,38.1 82.4,38.1 82.2,37.9 L80.9,37.2 C80.3,36.9 79.5,36.3 78.5,35.5 C77.5,34.7 76.6,33.7 75.9,32.5 C75.2,31.3 74.6,29.8 74.2,28.1 L73.7,26 C73.6,27 73.3,28.1 73,29.5 C72.7,30.8 71.8,32.3 70.4,33.8 C69,35.3 66.7,36.4 63.6,37.2 L61.8,37.6 L60.5,37.9 C60.5,37.9 60.5,37.9 60.4,37.9 C60.3,37.9 60.3,37.9 60.3,37.8 C60.3,37.7 60.2,37.7 60.2,37.7 C60.2,37.7 60.2,37.6 60.2,37.5 C60.2,37.4 60.3,37.3 60.5,37.2 L61.6,36.8 C64.6,35.7 66.9,34.3 68.3,32.5 C69.7,30.7 70.5,29 70.8,27.4 L71.1,25.9 L61.3,25.9 L61.1,25.9 Z" id="形状"></path>
                <path d="M94.9,17.2 C94.7,17.2 94.5,17 94.5,16.6 C94.5,16.2 94.6,16 94.9,16 L106.1,16 L106.7,15.1 C106.9,14.8 107,14.7 107.1,14.7 C107.2,14.7 107.4,14.9 107.7,15.3 L109.5,17.5 C109.8,17.9 110,18.2 110,18.4 C110,18.6 109.9,18.7 109.7,18.7 L108.8,18.8 C107.5,19.3 106.6,19.7 106.3,19.9 L104.8,20.8 C105,20.9 105.1,21 105.1,21.1 C105.1,21.2 105,21.3 104.9,21.4 L104.3,22 L104.3,24.2 L110.8,24.2 L112,22.3 C112.3,21.9 112.4,21.6 112.5,21.6 C112.6,21.6 112.8,21.8 113.2,22.3 L115,24.5 C115.1,24.7 115.3,24.9 115.4,25.1 C115.5,25.3 115.4,25.4 115.1,25.4 L104.2,25.4 L104.2,33.4 C104.2,34.1 104.2,34.6 104.2,34.8 C104.2,35 104.2,35.2 104.2,35.4 C104.1,35.8 104,36.1 103.9,36.4 C103.7,36.7 103.5,36.9 103.2,37.1 C102.9,37.3 102.4,37.5 101.8,37.7 C101.2,37.9 100.9,38 100.9,38 C100.8,38 100.8,38 100.7,37.9 C100.6,37.8 100.6,37.7 100.7,37.3 C100.8,36.9 100.6,36.6 100.5,36.2 C100.2,35.4 99.6,34.8 98.7,34.4 L98.1,34.1 C98,34.1 98,34 97.9,33.9 C97.8,33.8 97.9,33.7 97.9,33.7 C97.9,33.6 98,33.5 98.1,33.5 L98.7,33.6 C99.8,33.8 100.5,33.9 100.9,33.9 C101.2,33.9 101.4,33.8 101.5,33.6 C101.6,33.4 101.6,33.2 101.6,33 L101.6,25.4 L90.5,25.4 L90.3,25.3 C90.2,25.1 90.1,24.9 90.1,24.6 C90.1,24.3 90.2,24.2 90.4,24.2 L101.6,24.2 L101.6,22.3 L101.5,19.5 C101.6,19.4 101.6,19.3 101.6,19.3 C101.6,19.3 101.8,19.3 102.1,19.5 L104.2,20.5 C104.6,19.9 104.8,19.4 105,19 L105.8,17.5 L106,17.2 C106,17.2 94.9,17.2 94.9,17.2 Z M106.2,10.8 C106.7,9.4 107,7.9 107.3,6.5 C107.6,5.1 107.8,3.9 107.9,3.1 L108.1,1.6 L108.2,0.8 C108.2,0.8 108.4,0.9 108.8,1 L111.2,2.5 C111.7,2.8 111.9,3 111.9,3.2 C111.9,3.3 111.8,3.4 111.7,3.5 L110.8,4.1 C109.4,6.8 108.3,9.1 107.4,10.8 L111.4,10.8 L111.9,10 C112.1,9.7 112.2,9.6 112.3,9.6 C112.4,9.6 112.6,9.8 112.9,10.2 L115,12.8 C115.4,13.3 115.5,13.6 115.5,13.8 C115.5,14.1 115.4,14.2 115.1,14.3 C114.8,14.4 114.5,14.4 114,14.5 C113.5,14.5 113,14.7 112.5,15 C112,15.3 111.4,15.8 110.8,16.6 L110.4,17.2 C110.2,17.4 110.1,17.5 110,17.4 C109.9,17.3 109.9,17.2 109.9,17.1 C109.9,17 109.9,16.9 110,16.7 L110.2,15.8 C110.5,14.5 110.8,13.5 110.9,13 C111,12.5 111.1,12.1 111.2,11.8 L93.5,11.8 C93.7,13 93.8,13.9 93.8,14.5 C93.8,15.7 93.5,16.6 93.1,17.3 C92.6,17.9 92.2,18.3 91.6,18.2 C91,18.1 90.7,18 90.5,17.6 C90.3,17.2 90.1,16.7 90.2,16.1 C90.2,15.7 90.2,15.4 90.4,15.1 C90.6,14.8 90.7,14.5 90.9,14.2 L91.4,13.4 C92,12.4 92.3,11.3 92.3,10.1 L92.3,9.7 L92.2,8.9 C92.2,8.7 92.3,8.6 92.4,8.6 C92.5,8.6 92.7,8.8 92.9,9.3 C93.1,9.8 93.3,10.2 93.4,10.6 L106.2,10.6 L106.2,10.8 L106.2,10.8 Z M93.8,2.1 C93.8,2.1 93.8,2 93.8,1.9 C93.8,1.8 93.9,1.8 94.1,1.7 C94.3,1.7 94.7,2 95.4,2.5 C96.1,3 96.8,3.7 97.6,4.4 C98.4,5.1 98.7,6.2 98.7,7.7 C98.7,8.4 98.5,8.9 98.2,9.3 C97.9,9.7 97.5,9.9 97.1,9.9 C96.8,9.9 96.5,9.8 96.2,9.5 C95.9,9.2 95.8,8.8 95.7,8.4 C95.6,8 95.5,7.3 95.4,6.6 C95.3,5.9 95.2,5.2 95.1,4.6 C95,4 94.7,3.4 94.2,2.6 L93.8,2.1 Z M100,1.4 C100,1.2 100,1.1 100.1,1.1 C100.2,1.1 100.8,1.6 101.9,2.6 C103,3.6 103.7,4.5 103.9,5.3 C104.1,6.1 104.3,6.8 104.3,7.2 C104.3,7.6 104.2,8 104.1,8.4 C103.8,9.4 103.3,9.9 102.6,9.9 C102.3,9.9 102,9.8 101.7,9.5 C101.4,9.2 101.3,8.9 101.2,8.4 C101.1,7.9 101.1,7.3 101.1,6.5 C101.1,5.7 101,4.9 100.8,4.1 C100.6,3.3 100.4,2.7 100.1,2.1 L100,1.4 Z" id="形状"></path>
            </g>
        </g>
    </g>
</svg>