<svg height="15" viewBox="0 0 12 15" width="12" xmlns="http://www.w3.org/2000/svg"><path d="m9.582 4.792c0 1.231-.38 2.261-1.164 3.134l2.754 4.768c.156.291.246.537.246.784 0 .447-.291.76-.918 1.119v.023c-.425.246-.806.38-1.097.38-.38 0-.694-.246-.962-.716l-2.754-4.769c-.296.045-.595.067-.895.068-2.62 0-4.79-2.172-4.79-4.79-.069-2.487 2.259-4.86 4.789-4.793 1.276 0 2.485.515 3.38 1.41.94.94 1.41 2.06 1.41 3.381zm-4.79-3c-1.59 0-3 1.388-3 3 0 1.656 1.388 3 3 3 1.656 0 3-1.344 3-3 0-1.634-1.344-3-3-3z"/></svg>