<svg width="84" height="14" viewBox="0 0 84 14" xmlns="http://www.w3.org/2000/svg" xmlns:xlink="http://www.w3.org/1999/xlink">
    <defs>
        <path id="a" d="M0 0h84v14H0z"/>
    </defs>
    <g fill="none" fill-rule="evenodd" opacity=".4">
        <mask id="b" fill="#fff">
            <use xlink:href="#a"/>
        </mask>
        <path d="M7.298 3a.883.883 0 0 0-.623.31l-5.61 7.432c-.13.17-.06.31.155.31h6.515c.214 0 .495-.14.624-.31l5.615-7.429c.129-.17.059-.31-.155-.31L7.299 3m11.676.31c.129-.17.059-.31-.155-.31h-3.062a.884.884 0 0 0-.623.31l-5.613 7.432c-.129.17-.06.31.155.31h3.064c.214 0 .495-.14.624-.31l5.61-7.431M20.815 3a.884.884 0 0 0-.623.31l-5.613 7.432c-.128.17-.059.31.155.31h2.335c.214 0 .495-.14.624-.31l5.612-7.431c.129-.171.06-.311-.154-.311h-2.335m-1.566 7.744c-.128.171-.059.311.155.31l1.608-.001c.214 0 .495-.14.624-.311l5.61-7.429c.129-.17.06-.31-.155-.31L25.484 3a.881.881 0 0 0-.624.31l-5.61 7.433m4.184-.002c-.129.17-.06.31.154.31h1.169c.214 0 .495-.14.624-.31L30.99 3.34c.129-.17.06-.31-.154-.31h-1.163a.887.887 0 0 0-.625.31l-5.614 7.402M33.78 7.097c-.214 0-.283-.14-.155-.31l1.04-1.38c.128-.17.408-.31.622-.31h7.226c.214 0 .39.175.39.39l.002 1.218a.39.39 0 0 1-.389.39l-8.736.002zm-.415-4.067a.885.885 0 0 0-.624.31l-5.61 7.405c-.128.17-.06.31.155.31l2.724-.002c.214 0 .495-.14.624-.31l.895-1.182c.129-.17.41-.31.624-.31l10.36-.003a.39.39 0 0 1 .39.389v1.026c0 .214.175.39.389.39l2.139.002a.39.39 0 0 0 .389-.389V3.421a.39.39 0 0 0-.39-.389L33.366 3.03m13.898 7.633c0 .214.175.39.389.39h2.139a.39.39 0 0 0 .39-.39l.002-4.091c0-.214.15-.3.335-.191l4.049 2.387c.184.11.51.198.724.198l1.555-.002c.214 0 .54-.09.724-.198l4.049-2.383c.184-.109.335-.022.335.192l-.002 4.088c0 .214.175.39.389.39h2.142a.39.39 0 0 0 .389-.39V3.421a.39.39 0 0 0-.39-.39l-2.138-.001c-.214 0-.537.095-.716.21l-5.23 3.38a.657.657 0 0 1-.654 0L50.51 3.24a1.556 1.556 0 0 0-.716-.21l-2.142.002a.39.39 0 0 0-.39.39v7.241m19.069 0c0 .214.175.39.389.39h15.809a.39.39 0 0 0 .39-.39V6.655a.39.39 0 0 0-.39-.39l-7.784-.001a.39.39 0 0 0-.388.388l.001.777c0 .214.176.39.39.39l4.863.005a.39.39 0 0 1 .39.39v.411a.39.39 0 0 1-.39.39l-9.971-.003a.39.39 0 0 1-.39-.39v-3.16a.39.39 0 0 1 .39-.39l12.889-.002a.39.39 0 0 0 .39-.39V3.42a.39.39 0 0 0-.39-.39l-15.81.003a.39.39 0 0 0-.388.39v7.241" fill="#FFF" fill-rule="nonzero" mask="url(#b)"/>
    </g>
</svg>
